<?xml version="1.0" encoding="utf-8"?>
<!-- Generator: Adobe Illustrator 21.0.0, SVG Export Plug-In . SVG Version: 6.00 Build 0)  -->
<svg version="1.1" id="Calque_1" xmlns="http://www.w3.org/2000/svg" xmlns:xlink="http://www.w3.org/1999/xlink" x="0px" y="0px"
	 viewBox="0 0 190 32" style="enable-background:new 0 0 190 32;" xml:space="preserve">
<style type="text/css">
	.st0{fill:#3CBBCF;}
	.st1{fill:#01535A;}
	.st2{fill:#63B335;}
</style>
<path class="st0" d="M19.1,19.2L18.9,0h7.7v31.5h-7l-12.1-19l0.2,19H0V0h6.9L19.1,19.2z"/>
<path class="st1" d="M60.5,31.6h-8.7L64.2,0h7l12.1,31.5h-8.8L73,27h-11L60.5,31.6z M67.3,9.6l-3.4,11h6.9L67.3,9.6z"/>
<path class="st1" d="M86.5,31.6V0h10.8l5.9,20.3L109,0h10.8v31.5h-7.4l0.3-23.6l-6.8,23.6h-5.3L93.7,7.9L94,31.6H86.5z"/>
<path class="st1" d="M133.5,0v18.7c0,1,0,2.5,0.6,3.7c0.6,1.2,1.6,2.2,3.5,2.2c2,0,3-0.9,3.5-2c0.5-1.2,0.5-2.7,0.5-3.9V0h8.1v18.7
	c0,5.2-1.2,7.5-3.2,9.5c-2,2-4.9,3.3-8.8,3.3c-2.3,0-6.5-0.5-9.1-3.3c-2.6-2.8-3.2-5-3.2-9.5V0H133.5z"/>
<path class="st1" d="M155.3,0h10.3c4.9,0,8,0.9,9.8,2.3c2.6,2,3.8,5.2,3.8,8.6c0,2.4-0.7,4.3-1.6,5.7c-1.1,1.7-2.6,2.7-4.1,3.4
	l6.5,11.6h-8.3l-8.2-15.2h1.3c2,0,3.8-0.2,4.9-0.9c1-0.6,1.8-2.1,1.8-3.9c0-1.7-0.8-3-1.9-3.7c-0.9-0.6-2.2-0.9-3.3-0.9h-3v24.5
	h-8.1V0z"/>
<polygon class="st1" points="40.7,0 40.9,19.2 29.2,0 29.2,12.7 41.5,31.6 48.5,31.6 48.5,0 "/>
<circle class="st2" cx="185.7" cy="27.2" r="4.3"/>
</svg>
